<svg xmlns="http://www.w3.org/2000/svg" xmlns:xlink="http://www.w3.org/1999/xlink" width="2631" height="1645" viewBox="0 0 2631 1645"><defs><style>.a{clip-path:url(#f);}.b,.d{fill:#dc6f1c;}.b{opacity:0.28;}.c{fill:#a15d45;}.d{opacity:0.76;}.e{opacity:0.14;}.f{fill:#d2b2a7;}.g,.h{stroke:none;}.h{fill:#707070;}.i{filter:url(#c);}.j{filter:url(#a);}</style><filter id="a" x="1151.646" y="-177.54" width="2053.538" height="2186.777" filterUnits="userSpaceOnUse"><feOffset dy="3" input="SourceAlpha"/><feGaussianBlur stdDeviation="3" result="b"/><feFlood flood-opacity="0.161"/><feComposite operator="in" in2="b"/><feComposite in="SourceGraphic"/></filter><filter id="c" x="1243.058" y="-115.15" width="2053.538" height="2186.777" filterUnits="userSpaceOnUse"><feOffset dy="3" input="SourceAlpha"/><feGaussianBlur stdDeviation="3" result="d"/><feFlood flood-opacity="0.161"/><feComposite operator="in" in2="d"/><feComposite in="SourceGraphic"/></filter><clipPath id="f"><rect width="2631" height="1645"/></clipPath></defs><g id="e" class="a"><g transform="translate(1026.496 -286.848)"><g class="b" transform="translate(678.921 381.075)"><path class="g" d="M -243.0585784912109 1787.201049804688 C -301.9279479980469 1787.201049804688 -355.7954406738281 1786.271118164062 -403.1648254394531 1784.436767578125 C -456.3407592773438 1782.377319335938 -502.5279541015625 1779.130737304688 -540.4429321289062 1774.787353515625 C -560.8685913085938 1772.447387695312 -579.2894897460938 1769.74267578125 -595.1945190429688 1766.747680664062 C -611.8367309570312 1763.6142578125 -626.1832885742188 1760.077026367188 -637.8351440429688 1756.234252929688 C -649.9720458984375 1752.2314453125 -659.5145263671875 1747.78955078125 -666.1967163085938 1743.03173828125 C -669.6204833984375 1740.59423828125 -672.3607788085938 1738.025146484375 -674.3416748046875 1735.396362304688 C -676.3460693359375 1732.736083984375 -677.62890625 1729.939819335938 -678.1538696289062 1727.084594726562 C -678.677978515625 1724.234497070312 -678.4632568359375 1721.237670898438 -677.5157470703125 1718.177001953125 C -676.5435791015625 1715.0361328125 -674.7726440429688 1711.7373046875 -672.2520141601562 1708.372314453125 C -669.6723022460938 1704.928588867188 -666.2369995117188 1701.321411132812 -662.0413818359375 1697.651123046875 C -657.7626342773438 1693.907958984375 -652.5745239257812 1689.995483398438 -646.6207885742188 1686.022094726562 C -634.3948364257812 1677.8623046875 -618.4282836914062 1669.10302734375 -599.1644897460938 1659.987670898438 C -579.26513671875 1650.571166992188 -555.2913818359375 1640.51171875 -527.9091796875 1630.088256835938 C -506.0626525878906 1621.772338867188 -484.6373291015625 1613.152954101562 -464.2288818359375 1604.469604492188 C -444.2970275878906 1595.9892578125 -424.7592163085938 1587.203002929688 -406.1589050292969 1578.354858398438 C -388.0216979980469 1569.727416992188 -370.2492065429688 1560.791137695312 -353.33544921875 1551.7939453125 C -336.8732604980469 1543.036743164062 -320.743896484375 1533.966674804688 -305.3954467773438 1524.83544921875 C -290.4888916015625 1515.967407226562 -275.8804626464844 1506.780517578125 -261.9754638671875 1497.529907226562 C -248.5054473876953 1488.568603515625 -235.2954559326172 1479.28173828125 -222.712646484375 1469.926391601562 C -210.5604553222656 1460.891723632812 -198.6270141601562 1451.521118164062 -187.2435760498047 1442.074829101562 C -176.2913970947266 1432.986694335938 -165.5120239257812 1423.549560546875 -155.2054595947266 1414.025512695312 C -74.02607727050781 1339.011108398438 -25.63076591491699 1262.514526367188 21.17079544067383 1188.536376953125 C 38.41079711914062 1161.285766601562 54.69454574584961 1135.54638671875 72.58392333984375 1109.775756835938 C 82.19798278808594 1095.92578125 91.33735656738281 1083.426147460938 100.524543762207 1071.56201171875 C 110.8132934570312 1058.275146484375 120.9170455932617 1046.09423828125 131.4139251708984 1034.322998046875 C 142.6592407226562 1021.712036132812 154.4126739501953 1009.560485839844 166.3476715087891 998.2055053710938 C 179.0886077880859 986.0836181640625 192.5714263916016 974.3582763671875 206.4220428466797 963.35546875 C 221.0392303466797 951.7435913085938 236.6207885742188 940.4945678710938 252.7339172363281 929.920166015625 C 269.6017456054688 918.8511352539062 287.651123046875 908.127685546875 306.381103515625 898.0476684570312 C 318.8161010742188 891.35546875 331.0386047363281 883.68359375 342.7086181640625 875.2451782226562 C 354.1295471191406 866.987060546875 365.3370361328125 857.7667236328125 376.0201721191406 847.83984375 C 386.467041015625 838.1323852539062 396.7008056640625 827.4814453125 406.4370422363281 816.1829833984375 C 415.9508056640625 805.1427001953125 425.2517395019531 793.1795654296875 434.0817260742188 780.6260986328125 C 442.7026672363281 768.3692626953125 451.1123657226562 755.2117309570312 459.0770568847656 741.5192260742188 C 466.846435546875 728.1620483398438 474.4064331054688 713.927978515625 481.5461120605469 699.2123413085938 C 488.5048522949219 684.8704833984375 495.256103515625 669.6773681640625 501.6123657226562 654.0545654296875 C 507.80078125 638.8439331054688 513.7848510742188 622.8088989257812 519.3980102539062 606.39453125 C 558.7598876953125 491.2904968261719 583.9464111328125 346.7848510742188 594.2576904296875 176.8917388916016 C 598.3079833984375 110.153923034668 600.0445556640625 39.28923416137695 599.4189453125 -33.73389053344727 C 598.9182739257812 -92.15170288085938 596.9136352539062 -152.0738983154297 593.4598388671875 -211.8367004394531 C 590.3873291015625 -265.0079650878906 586.7130126953125 -308.2063903808594 584.1714477539062 -335.0823364257812 C 581.820068359375 -359.9494934082031 579.9788818359375 -375.8064270019531 579.4783325195312 -380.0129089355469 L 1356.116088867188 172.0953521728516 L 1356.116088867188 1768.808959960938 L 306.1442260742188 1768.808959960938 L 306.1282958984375 1768.808959960938 L 306.112060546875 1768.809814453125 C 305.3982849121094 1768.855834960938 233.5236053466797 1773.46044921875 130.3720397949219 1778.005737304688 C 69.78923034667969 1780.675170898438 10.43204593658447 1782.802001953125 -46.05014038085938 1784.32763671875 C -116.6520156860352 1786.234252929688 -182.9351348876953 1787.201049804688 -243.0585784912109 1787.201049804688 Z"/><path class="h" d="M 580.1071166992188 -378.9525146484375 C 580.7501220703125 -373.4742431640625 582.490966796875 -358.166015625 584.669189453125 -335.1295166015625 C 587.2111206054688 -308.2491455078125 590.8861083984375 -265.044189453125 593.959228515625 -211.865478515625 C 597.4129638671875 -152.0948486328125 599.4183349609375 -92.1641845703125 599.9189453125 -33.73828125 C 600.5445556640625 39.29638671875 598.8079833984375 110.1729736328125 594.7567138671875 176.9219970703125 C 584.442626953125 346.85986328125 559.2476806640625 491.4098510742188 519.87109375 606.556396484375 C 514.2548828125 622.9795532226562 508.2676696777344 639.0236206054688 502.0754699707031 654.2429809570312 C 495.7151794433594 669.8757934570312 488.9595336914062 685.0792236328125 481.99609375 699.4307861328125 C 474.8507995605469 714.1573486328125 467.2848510742188 728.4026489257812 459.5092163085938 741.7708129882812 C 451.537353515625 755.4754638671875 443.119873046875 768.6451416015625 434.490478515625 780.9136352539062 C 425.651123046875 793.4807739257812 416.3401489257812 805.4567260742188 406.8157958984375 816.509521484375 C 397.0676879882812 827.8217163085938 386.8211059570312 838.486083984375 376.3604736328125 848.2061157226562 C 365.6626586914062 858.146728515625 354.4392395019531 867.3804931640625 343.0017395019531 875.6505126953125 C 331.3135986328125 884.1017456054688 319.0723571777344 891.7854614257812 306.6179809570312 898.4879760742188 C 287.9007873535156 908.5610961914062 269.8639221191406 919.2770385742188 253.00830078125 930.3383178710938 C 236.9076690673828 940.9042358398438 221.3383026123047 952.14453125 206.7329864501953 963.7470703125 C 192.8939208984375 974.740478515625 179.42236328125 986.455810546875 166.6923522949219 998.567626953125 C 154.7673645019531 1009.913330078125 143.0236053466797 1022.05517578125 131.7870483398438 1034.65576171875 C 121.2982940673828 1046.418334960938 111.2014236450195 1058.590454101562 100.9198608398438 1071.868286132812 C 91.73798370361328 1083.725463867188 82.60360717773438 1096.21826171875 72.99455261230469 1110.060791015625 C 55.11141967773438 1135.822998046875 38.83049011230469 1161.557983398438 21.59329223632812 1188.803955078125 C -25.22544860839844 1262.808959960938 -73.63858032226562 1339.333984375 -154.8660888671875 1414.392944335938 C -165.17919921875 1423.922729492188 -175.9651489257812 1433.365844726562 -186.9241943359375 1442.459838867188 C -198.3145141601562 1451.911376953125 -210.255126953125 1461.287719726562 -222.4142150878906 1470.32763671875 C -235.0042114257812 1479.68798828125 -248.2214050292969 1488.980224609375 -261.6985778808594 1497.946166992188 C -275.6104431152344 1507.201049804688 -290.22607421875 1516.392700195312 -305.1398315429688 1525.26513671875 C -320.4951171875 1534.400512695312 -336.6314086914062 1543.474487304688 -353.1004638671875 1552.235107421875 C -370.0210571289062 1561.23583984375 -387.8001708984375 1570.17578125 -405.9439086914062 1578.806396484375 C -424.55078125 1587.657348632812 -444.0948486328125 1596.446411132812 -464.0332641601562 1604.929809570312 C -484.4476318359375 1613.615478515625 -505.8786010742188 1622.2373046875 -527.7313842773438 1630.555786132812 C -555.1013793945312 1640.974243164062 -579.0629272460938 1651.028564453125 -598.9507446289062 1660.439575195312 C -618.1923217773438 1669.544555664062 -634.1373291015625 1678.291748046875 -646.3429565429688 1686.43798828125 C -652.2788696289062 1690.399169921875 -657.4498291015625 1694.298583984375 -661.7120361328125 1698.02734375 C -665.8814086914062 1701.6748046875 -669.29296875 1705.256103515625 -671.8516845703125 1708.671997070312 C -674.3379516601562 1711.991088867188 -676.0829467773438 1715.238891601562 -677.0382690429688 1718.324829101562 C -677.9613647460938 1721.3076171875 -678.17138671875 1724.224243164062 -677.6619873046875 1726.994262695312 C -677.1510620117188 1729.772338867188 -675.8998413085938 1732.498046875 -673.942626953125 1735.095458984375 C -671.9923095703125 1737.68359375 -669.28857421875 1740.216796875 -665.9066772460938 1742.62451171875 C -659.26513671875 1747.35302734375 -649.7679443359375 1751.772338867188 -637.6785888671875 1755.75927734375 C -626.0473022460938 1759.59521484375 -611.72265625 1763.126708984375 -595.1019897460938 1766.25634765625 C -579.2088623046875 1769.248901367188 -560.7998046875 1771.952026367188 -540.3861083984375 1774.29052734375 C -502.4832763671875 1778.632690429688 -456.3088989257812 1781.8779296875 -403.1454467773438 1783.93701171875 C -355.7823486328125 1785.771118164062 -301.92138671875 1786.701171875 -243.05859375 1786.701171875 C -182.9401550292969 1786.701171875 -116.6620178222656 1785.734252929688 -46.06515502929688 1783.82763671875 C 10.41392517089844 1782.302368164062 69.76766967773438 1780.175537109375 130.3473510742188 1777.506103515625 C 233.4945373535156 1772.961181640625 305.3661193847656 1768.357055664062 306.0798645019531 1768.31103515625 L 306.1442260742188 1768.308959960938 L 1355.616088867188 1768.308959960938 L 1355.616088867188 172.3533935546875 L 580.1071166992188 -378.9525146484375 M 578.8470458984375 -381.0751953125 L 1356.616088867188 171.83740234375 L 1356.616088867188 1769.308959960938 L 306.1442260742188 1769.308959960938 C 306.1442260742188 1769.308959960938 20.55191040039062 1787.701171875 -243.05859375 1787.701171875 C -572.6350708007812 1787.701171875 -867.885498046875 1758.967895507812 -528.0870361328125 1629.62109375 C 83.498291015625 1396.816772460938 -60.92013549804688 1095.149536132812 306.1442260742188 897.6073608398438 C 709.5120849609375 680.5279541015625 578.8470458984375 -381.0751953125 578.8470458984375 -381.0751953125 Z"/></g><g class="j" transform="matrix(1, 0, 0, 1, -1026.5, 286.85)"><path class="c" d="M578.847-381.075l777.769,552.913V1769.309H306.144s-1445.816,93.117-834.231-139.688S-60.92,1095.15,306.144,897.607C709.512,680.528,578.847-381.075,578.847-381.075Z" transform="translate(1839.57 209.54)"/></g><g class="i" transform="matrix(1, 0, 0, 1, -1026.5, 286.85)"><path class="d" d="M578.847-381.075l777.769,552.913V1769.309H306.144s-1445.816,93.117-834.231-139.688S-60.92,1095.15,306.144,897.607C709.512,680.528,578.847-381.075,578.847-381.075Z" transform="translate(1930.98 271.93)"/></g></g><g class="e" transform="translate(312.318 -286.848)"><path class="f" d="M302.645,302.645C302.645,151.323,239.988,0,151.323,0S0,151.323,0,302.645c2.128,59.11,37.121,128.388,86.538,152.032,1.182.473,2.128.946,3.31,1.419h.236c8.039,4.492,23.171,13,23.171,22.935,0,0-37.831,469.809-37.831,496.764a87.367,87.367,0,0,0,24.826,61.475c13,13,30.974,21.753,50.362,21.753h.946c19.388,0,37.358-8.748,50.6-21.753,13-13,24.353-30.5,24.353-61.475S188.68,479.031,188.68,479.031c0-9.931,15.132-18.679,23.171-23.171l4.02-2.128c51.071-23.408,86.774-89.611,86.774-151.086" transform="matrix(-0.839, 0.545, -0.545, -0.839, 1336.176, 888.171)"/><g transform="translate(933.462 1524.779) rotate(-168)"><path class="f" d="M.1,0C.1.234-.13.234.1,0V0Z" transform="translate(912.508 0)"/><path class="f" d="M299.965,314.026c0-101.238-35.152-218.412-56.243-313.323V0H224.974L224.5,273.952c0,14.3-6.8,26.013-21.091,26.013-13.358,0-18.748-10.077-20.154-23.2a11.292,11.292,0,0,1,0-2.812L159.122,0H140.374L119.283,274.187l-.234,2.578c-1.406,13.124-8.671,23.2-22.263,23.2-14.3,0-21.326-11.717-21.326-26.013L74.523,0H55.775C35.152,96.082,0,213.022,0,314.26c0,60.227,34.215,112.721,86.006,136.39,26.247,11.952,26.481,24.138,26.481,24.138s-37.5,472.679-37.5,499.395,9.374,43.354,22.263,56.244,33.277,19.216,52.494,19.216h.937c19.216,0,39.37-6.327,52.494-19.216,12.889-12.889,21.794-25.544,21.794-56.244s-37.5-499.395-37.5-499.395-2.344-11.717,26.716-24.841c50.619-22.966,85.771-75.46,85.771-135.922Z" transform="translate(0 472.123) rotate(-45)"/></g></g></g></svg>