<svg xmlns="http://www.w3.org/2000/svg" xmlns:xlink="http://www.w3.org/1999/xlink" width="428" height="926" viewBox="0 0 428 926"><defs><style>.a{clip-path:url(#f);}.b,.d{fill:#dc6f1c;}.b{opacity:0.28;}.c{fill:#a15d45;}.d{opacity:0.76;}.e,.f{stroke:none;}.f{fill:#707070;}.g{filter:url(#c);}.h{filter:url(#a);}</style><filter id="a" x="-72.07" y="256.477" width="834.739" height="877.762" filterUnits="userSpaceOnUse"><feOffset dy="3" input="SourceAlpha"/><feGaussianBlur stdDeviation="3" result="b"/><feFlood flood-opacity="0.161"/><feComposite operator="in" in2="b"/><feComposite in="SourceGraphic"/></filter><filter id="c" x="-41.452" y="282.456" width="834.739" height="877.762" filterUnits="userSpaceOnUse"><feOffset dy="3" input="SourceAlpha"/><feGaussianBlur stdDeviation="3" result="d"/><feFlood flood-opacity="0.161"/><feComposite operator="in" in2="d"/><feComposite in="SourceGraphic"/></filter><clipPath id="f"><rect width="428" height="926"/></clipPath></defs><g id="e" class="a"><g transform="matrix(0.995, 0.105, -0.105, 0.995, -854.968, 416.961)"><g class="b" transform="translate(1483.46 94.227)"><path class="e" d="M -520.78125 405.3002319335938 C -566.2758178710938 405.3002319335938 -602.5654907226562 403.7855834960938 -628.6420288085938 400.7982482910156 C -643.7947998046875 399.0623474121094 -655.662109375 396.80224609375 -663.9143676757812 394.0806884765625 C -672.7549438476562 391.1651306152344 -677.6047973632812 387.6892395019531 -678.3292236328125 383.7495727539062 C -679.0934448242188 379.5940246582031 -675.2901611328125 374.6900329589844 -667.02490234375 369.1737976074219 C -662.60205078125 366.221923828125 -656.8226928710938 363.0516967773438 -649.8474731445312 359.7510070800781 C -642.635009765625 356.338134765625 -633.944580078125 352.6915893554688 -624.017578125 348.9128112792969 C -608.3496704101562 342.9486999511719 -593.4796752929688 336.630126953125 -579.820556640625 330.1328125 C -566.8351440429688 323.9559020996094 -554.526123046875 317.4180297851562 -543.235595703125 310.7010192871094 C -532.5888061523438 304.3669128417969 -522.486572265625 297.6581420898438 -513.20947265625 290.7608032226562 C -504.5617980957031 284.3314514160156 -496.3123474121094 277.500244140625 -488.6904602050781 270.4571228027344 C -459.2061462402344 243.2120208740234 -441.6361389160156 215.4395751953125 -424.6445922851562 188.5815734863281 C -400.1480102539062 149.8606872558594 -377.010009765625 113.2872467041016 -321.2826843261719 83.29668426513672 C -287.7863464355469 65.27001953125 -261.7326965332031 29.60813140869141 -243.8455810546875 -22.69831275939941 C -229.5550231933594 -64.4874267578125 -220.4112396240234 -116.945198059082 -216.6684722900391 -178.6143188476562 C -215.1984710693359 -202.8354187011719 -214.5682525634766 -228.5538635253906 -214.7953643798828 -255.0555419921875 C -214.9770202636719 -276.255859375 -215.7045745849609 -298.0020751953125 -216.9578094482422 -319.6903076171875 C -218.8338775634766 -352.1546020507812 -221.3481597900391 -374.8396911621094 -221.9489135742188 -380.0145263671875 L 59.11241912841797 -180.2093963623047 L 59.11241912841797 398.6271362304688 L -321.5196838378906 398.6271362304688 L -321.5357971191406 398.6271362304688 L -321.5517883300781 398.6281433105469 C -321.810791015625 398.6448059082031 -347.8863525390625 400.3153686523438 -385.3090209960938 401.9642333984375 C -419.8463439941406 403.4861450195312 -471.385009765625 405.3002319335938 -520.78125 405.3002319335938 Z"/><path class="f" d="M -221.3244018554688 -378.9572448730469 C -220.5521850585938 -372.1416015625 -218.2230834960938 -350.2515258789062 -216.4586791992188 -319.7192993164062 C -215.2048950195312 -298.0228576660156 -214.4771118164062 -276.268310546875 -214.2953491210938 -255.0598754882812 C -214.068115234375 -228.5467529296875 -214.6986694335938 -202.816650390625 -216.1694946289062 -178.5840911865234 C -219.9150390625 -116.8700866699219 -229.0674438476562 -64.36808776855469 -243.3724975585938 -22.53653717041016 C -261.3018188476562 29.89302062988281 -287.434814453125 65.64857482910156 -321.0458068847656 83.73690795898438 C -376.6576843261719 113.6654663085938 -399.7615661621094 150.1850280761719 -424.2220153808594 188.8489074707031 C -441.2308044433594 215.734130859375 -458.8186950683594 243.5348052978516 -488.3511352539062 270.8243408203125 C -495.9860229492188 277.8795776367188 -504.2492370605469 284.7221374511719 -512.9111328125 291.1620178222656 C -522.201904296875 298.0694580078125 -532.318603515625 304.7879028320312 -542.9800415039062 311.1306762695312 C -554.28369140625 317.8555908203125 -566.6064453125 324.4007873535156 -579.6058349609375 330.5843505859375 C -593.2769165039062 337.0874633789062 -608.1593627929688 343.4112548828125 -623.8397216796875 349.3800354003906 C -643.3406982421875 356.8032531738281 -657.7769165039062 363.6028137207031 -666.7474365234375 369.5896911621094 C -670.949462890625 372.3942565917969 -674.0108032226562 375.0585632324219 -675.8462524414062 377.5087890625 C -677.5097045898438 379.7294616699219 -678.1796875 381.7987976074219 -677.8375854492188 383.6591186523438 C -677.4986572265625 385.5020141601562 -676.1502685546875 387.2741394042969 -673.8297119140625 388.9263610839844 C -671.4720458984375 390.6049194335938 -668.0833740234375 392.1792297363281 -663.7578125 393.6058044433594 C -655.5379028320312 396.3166809082031 -643.7041015625 398.5694580078125 -628.5852661132812 400.3014526367188 C -602.527587890625 403.2865905761719 -566.2571411132812 404.8001403808594 -520.7813720703125 404.8001403808594 C -471.3952331542969 404.8001403808594 -419.865478515625 402.9863586425781 -385.3338012695312 401.4648132324219 C -347.9155883789062 399.8160095214844 -321.8429260253906 398.1458129882812 -321.5839233398438 398.1291198730469 L -321.5196838378906 398.1270141601562 L 58.6124267578125 398.1270141601562 L 58.6124267578125 -179.9514007568359 L -221.3244018554688 -378.9572448730469 M -222.5778198242188 -381.0751953125 L 59.6124267578125 -180.4674224853516 L 59.6124267578125 399.1270141601562 L -321.5196838378906 399.1270141601562 C -321.5196838378906 399.1270141601562 -425.1382446289062 405.8001098632812 -520.7813720703125 405.8001098632812 C -640.3583374023438 405.8001098632812 -747.4811401367188 395.3750915527344 -624.1954345703125 348.4454650878906 C -402.3001403808594 263.9794616699219 -454.6980285644531 154.5285797119141 -321.5196838378906 82.85635375976562 C -175.169921875 4.095687866210938 -222.5778198242188 -381.0751953125 -222.5778198242188 -381.0751953125 Z"/></g><g class="h" transform="matrix(0.99, -0.1, 0.1, 0.99, 806.7, -504.05)"><path class="c" d="M-222.578-381.075,59.612-180.467V399.127H-321.52S-846.091,432.912-624.2,348.445-454.7,154.529-321.52,82.856C-175.17,4.1-222.578-381.075-222.578-381.075Z" transform="matrix(0.99, 0.1, -0.1, 0.99, 654.55, 712.43)"/></g><g class="g" transform="matrix(0.99, -0.1, 0.1, 0.99, 806.7, -504.05)"><path class="d" d="M-222.578-381.075,59.612-180.467V399.127H-321.52S-846.091,432.912-624.2,348.445-454.7,154.529-321.52,82.856C-175.17,4.1-222.578-381.075-222.578-381.075Z" transform="matrix(0.99, 0.1, -0.1, 0.99, 685.17, 738.41)"/></g></g></g></svg>