<svg xmlns="http://www.w3.org/2000/svg" width="36.951" height="37.705" viewBox="0 0 36.951 37.705"><defs><style>.a{fill:#4285f4;}.b{fill:#34a853;}.c{fill:#fbbc05;}.d{fill:#eb4335;}</style></defs><path class="a" d="M148.649,110.615a16.155,16.155,0,0,0-.4-3.854h-17.7v7h10.39a9.213,9.213,0,0,1-3.854,6.117l-.035.234,5.6,4.336.388.039a18.433,18.433,0,0,0,5.614-13.867" transform="translate(-111.697 -91.344)"/><path class="b" d="M30.767,171.494a17.969,17.969,0,0,0,12.485-4.567L37.3,162.319a11.158,11.158,0,0,1-6.536,1.885,11.349,11.349,0,0,1-10.725-7.834l-.221.019L14,160.893l-.076.212a18.839,18.839,0,0,0,16.842,10.39" transform="translate(-11.914 -133.789)"/><path class="c" d="M8.128,83.6A11.606,11.606,0,0,1,7.5,79.867a12.2,12.2,0,0,1,.607-3.729l-.011-.25L2.2,71.312l-.193.092a18.813,18.813,0,0,0,0,16.926L8.128,83.6" transform="translate(0 -61.014)"/><path class="d" d="M30.767,7.29a10.449,10.449,0,0,1,7.29,2.807l5.321-5.2A18.113,18.113,0,0,0,30.767,0,18.839,18.839,0,0,0,13.925,10.39l6.1,4.734A11.4,11.4,0,0,1,30.767,7.29" transform="translate(-11.914)"/></svg>